<?xml version="1.0" encoding="UTF-8" standalone="no"?>
<!-- Created with Inkscape (http://www.inkscape.org/) -->

<svg
   xmlns:dc="http://purl.org/dc/elements/1.1/"
   xmlns:cc="http://creativecommons.org/ns#"
   xmlns:rdf="http://www.w3.org/1999/02/22-rdf-syntax-ns#"
   xmlns:svg="http://www.w3.org/2000/svg"
   xmlns="http://www.w3.org/2000/svg"
   xmlns:sodipodi="http://sodipodi.sourceforge.net/DTD/sodipodi-0.dtd"
   xmlns:inkscape="http://www.inkscape.org/namespaces/inkscape"
   width="507.9588"
   height="541.57617"
   id="svg2"
   version="1.1"
   inkscape:version="0.48.2 r9819"
   sodipodi:docname="birkHomeLogo.svg"
   inkscape:export-filename="C:\Users\Willy Weiskopf\Desktop\BirkHomeLogo_white.png"
   inkscape:export-xdpi="83.090805"
   inkscape:export-ydpi="83.090805">
  <defs
     id="defs4" />
  <sodipodi:namedview
     id="base"
     pagecolor="#ffffff"
     bordercolor="#666666"
     borderopacity="1.0"
     inkscape:pageopacity="1"
     inkscape:pageshadow="2"
     inkscape:zoom="1"
     inkscape:cx="152.8791"
     inkscape:cy="175.78737"
     inkscape:document-units="px"
     inkscape:current-layer="layer1"
     showgrid="false"
     inkscape:snap-midpoints="true"
     inkscape:window-width="1920"
     inkscape:window-height="1028"
     inkscape:window-x="-8"
     inkscape:window-y="-8"
     inkscape:window-maximized="1"
     inkscape:object-paths="false"
     fit-margin-top="0"
     fit-margin-left="0"
     fit-margin-right="0"
     fit-margin-bottom="0" />
  <metadata
     id="metadata7">
    <rdf:RDF>
      <cc:Work
         rdf:about="">
        <dc:format>image/svg+xml</dc:format>
        <dc:type
           rdf:resource="http://purl.org/dc/dcmitype/StillImage" />
        <dc:title></dc:title>
      </cc:Work>
    </rdf:RDF>
  </metadata>
  <g
     inkscape:label="Layer 1"
     inkscape:groupmode="layer"
     id="layer1"
     transform="translate(-0.00939,-0.67083)">
    <flowRoot
       xml:space="preserve"
       id="flowRoot4017"
       style="font-size:40px;font-style:normal;font-weight:normal;line-height:125%;letter-spacing:0px;word-spacing:0px;fill:#000000;fill-opacity:1;stroke:none;font-family:Sans"><flowRegion
         id="flowRegion4019"><rect
           id="rect4021"
           width="180.48901"
           height="42.603184"
           x="2017.3756"
           y="526.98187" /></flowRegion><flowPara
         id="flowPara4023" /></flowRoot>    <g
       id="g3101"
       inkscape:export-xdpi="90"
       inkscape:export-ydpi="90"
       transform="translate(-121.96551,-475.69048)"
       inkscape:export-filename="C:\Users\Willy Weiskopf\Desktop\BirkHomeLogo_transparent.png">
      <path
         sodipodi:nodetypes="ccccccccccccccccccccccccc"
         inkscape:connector-curvature="0"
         id="path3114"
         d="m 376.3761,477.79906 c -65.4828,65.04838 -130.9363,130.12643 -196.4374,195.15625 6.8053,6.73596 13.5332,13.55011 20.3124,20.3125 9.4563,-9.28322 16.7733,-17.08208 26.2225,-26.3724 -0.7855,85.18745 0.5842,168.87267 -0.2225,254.05987 37.6771,0 75.3542,0 113.0313,0 0,-9.6562 0,-19.3125 0,-28.9687 -27.9374,-0.4027 -55.875,-0.7906 -83.8125,-1.1875 -0.042,-83.91669 -0.083,-167.83335 -0.125,-251.75002 41.0729,-40.54167 82.1458,-81.08333 123.2188,-121.625 39.9062,40.05208 79.8124,80.10417 119.7187,120.15625 -0.4063,84.40625 -0.8125,168.8125 -1.2187,253.21877 -23.2292,0.375 -46.4584,0.75 -69.6876,1.125 -0.03,-28.6563 -0.067,-57.3125 -0.094,-85.96877 -32.7604,0 -65.5208,0 -98.2813,0 9.3053,9.33007 18.6334,18.63827 27.9063,27.99997 14.1354,0.01 28.2708,0.021 42.4063,0.031 -0.01,28.9896 -0.022,57.9792 -0.031,86.9688 42.6563,0 85.3125,0 127.9687,0 0.099,-84.6563 0.2092,-169.31252 0.3126,-253.96877 8.3541,8.35417 16.7083,16.70833 25.0624,25.0625 6.4352,-6.67891 12.8834,-13.34546 19.3438,-20 -64.7677,-65.19025 -129.4716,-130.44537 -194.1875,-195.6875 -0.4687,0.47917 -0.9375,0.95833 -1.4063,1.4375 z"
         style="fill:#0f7414;fill-opacity:1;stroke-width:0.2;stroke-miterlimit:4;stroke-dasharray:none" />
      <path
         sodipodi:nodetypes="cccccc"
         inkscape:connector-curvature="0"
         id="path3084-1"
         d="m 191.4959,834.85758 c 0,0 0.023,58.125 0.023,86.0937 9,0 17.969,0 26.969,0 0.01,-28.5833 0.022,-86.1003 0.022,-86.1003 l -13.495,-13.3751 z"
         style="opacity:0.98000004;fill:#0f7414;fill-opacity:1" />
      <path
         sodipodi:nodetypes="cccccc"
         inkscape:connector-curvature="0"
         id="path3084-1-8"
         d="m 121.9749,834.85758 c 0,0 0.023,58.125 0.023,86.0937 9,0 17.969,0 26.969,0 0.01,-28.5833 0.022,-86.1003 0.022,-86.1003 l -13.495,-13.3751 z"
         style="opacity:0.98000004;fill:#0f7414;fill-opacity:1" />
      <path
         sodipodi:nodetypes="cccccc"
         inkscape:connector-curvature="0"
         id="path3084-1-2"
         d="m 156.7354,834.85758 c 0,0 0.023,58.125 0.023,86.0937 9,0 17.969,0 26.969,0 0.01,-28.5833 0.022,-86.1003 0.022,-86.1003 l -13.495,-13.3751 z"
         style="opacity:0.98000004;fill:#0f7414;fill-opacity:1" />
      <path
         sodipodi:nodetypes="cccccc"
         inkscape:connector-curvature="0"
         id="path3084-1-5"
         d="m 602.9197,834.85758 c 0,0 0.023,58.125 0.023,86.0937 9,0 17.969,0 26.969,0 0.01,-28.5833 0.022,-86.1003 0.022,-86.1003 l -13.495,-13.3751 z"
         style="opacity:0.98000004;fill:#0f7414;fill-opacity:1" />
      <path
         sodipodi:nodetypes="cccccc"
         inkscape:connector-curvature="0"
         id="path3084-1-8-5"
         d="m 533.3987,834.85758 c 0,0 0.023,58.125 0.023,86.0937 9,0 17.969,0 26.969,0 0.01,-28.5833 0.022,-86.1003 0.022,-86.1003 l -13.495,-13.3751 z"
         style="opacity:0.98000004;fill:#0f7414;fill-opacity:1" />
      <path
         sodipodi:nodetypes="cccccc"
         inkscape:connector-curvature="0"
         id="path3084-1-2-1"
         d="m 568.1592,834.85758 c 0,0 0.023,58.125 0.023,86.0937 9,0 17.969,0 26.969,0 0.01,-28.5833 0.022,-86.1003 0.022,-86.1003 l -13.495,-13.3751 z"
         style="opacity:0.98000004;fill:#0f7414;fill-opacity:1" />
      <path
         inkscape:connector-curvature="0"
         id="path3077"
         d="m 225.999,935.41128 301.2306,0"
         style="fill:#014a99;fill-opacity:1;stroke:#014a99;stroke-width:9.61966991;stroke-linecap:butt;stroke-linejoin:miter;stroke-miterlimit:4;stroke-opacity:1;stroke-dasharray:none" />
      <rect
         y="950.34875"
         x="225.94423"
         height="66.21875"
         width="17.1875"
         id="rect3873"
         style="opacity:0.98000004;fill:#0f7414;fill-opacity:1;stroke:#0f7414;stroke-width:0.69999999;stroke-linecap:butt;stroke-miterlimit:4;stroke-opacity:1;stroke-dasharray:none" />
      <path
         inkscape:connector-curvature="0"
         id="rect3875"
         d="m 269.8817,950.28628 c 5.7292,0 11.4584,0 17.1875,0 0,22.0833 0,44.1667 0,66.25002 -5.7291,0 -11.4583,0 -17.1875,0 0,-22.08332 0,-44.16672 0,-66.25002 z"
         style="opacity:0.98000004;fill:#0f7414;fill-opacity:1;stroke:#0f7414;stroke-width:0.69999999;stroke-linecap:butt;stroke-miterlimit:4;stroke-opacity:1;stroke-dasharray:none" />
      <path
         inkscape:connector-curvature="0"
         id="rect3877"
         d="m 243.6317,975.28628 c 8.7292,0 17.4583,0 26.1875,0 0,4.75 0,9.5 0,14.25 -8.7292,0 -17.4583,0 -26.1875,0 0,-4.75 0,-9.5 0,-14.25 z"
         style="opacity:0.98000004;fill:#0f7414;fill-opacity:1;stroke:#0f7414;stroke-width:0.69999999;stroke-linecap:butt;stroke-miterlimit:4;stroke-opacity:1" />
      <path
         inkscape:connector-curvature="0"
         id="path3884"
         d="m 336.0067,949.29908 c -19.404,0 -35.125,15.2704 -35.125,34.125 0,18.85462 15.721,34.15622 35.125,34.15622 19.404,0 35.1562,-15.3016 35.1562,-34.15622 0,-18.8546 -15.7522,-34.125 -35.1562,-34.125 z m 0,15.9687 c 9.4966,0 17.2188,8.1218 17.2188,18.1563 0,10.0345 -7.7222,18.15622 -17.2188,18.15622 -9.4966,0 -17.1875,-8.12172 -17.1875,-18.15622 0,-10.0345 7.6909,-18.1563 17.1875,-18.1563 z"
         style="opacity:0.98000004;fill:#0f7414;fill-opacity:1;stroke:#0f7414;stroke-width:0.70794666;stroke-linecap:butt;stroke-miterlimit:4;stroke-opacity:1;stroke-dasharray:none" />
      <path
         sodipodi:nodetypes="cccccccccccccccccccc"
         id="path3922"
         style="fill:#0f7414;fill-opacity:1;stroke:#0f7414;stroke-width:1px;stroke-linecap:butt;stroke-linejoin:miter;stroke-opacity:1"
         d="m 402.0312,973.18288 -0.5053,-22.7777 7.6928,0.022 13.4152,33.0862 13.0956,-33.0862 6.7772,-0.017 0.5155,22.8322 -16.4414,43.62862 -7.8939,0 -16.6557,-43.69132 m 40.4755,-22.7735 17.4419,0 0.044,66.43442 -16.9558,0 z m -57.4933,0 16.5125,0 0.5035,66.46232 -17.016,0 z"
         inkscape:connector-curvature="0" />
      <path
         inkscape:connector-curvature="0"
         d="m 493.4584,949.91128 33.0169,0 0,15.9687 -33.0169,0 z m 0.032,25 32.9848,0 0,15.9687 -32.9848,0 z m 0,26.00002 32.9848,0 0,15.9687 -32.9848,0 z m -16.9841,-51.00002 18,0 0,66.96872 -18,0 z"
         style="opacity:0.98000004;fill:#0f7414;fill-opacity:1;stroke:none"
         id="rect3946" />
      <flowRoot
         transform="matrix(1.0413145,0,0,0.9827024,-1836.1087,250.71333)"
         style="font-size:92px;font-style:normal;font-variant:normal;font-weight:normal;font-stretch:normal;line-height:125%;letter-spacing:0px;word-spacing:0px;fill:#014a99;fill-opacity:1;stroke:none;font-family:Franklin Gothic Heavy;-inkscape-font-specification:'Franklin Gothic Heavy,'"
         id="flowRoot3956"
         xml:space="preserve"><flowRegion
           id="flowRegion3958"><rect
             style="font-size:92px;font-style:normal;font-variant:normal;font-weight:normal;font-stretch:normal;fill:#014a99;fill-opacity:1;font-family:Franklin Gothic Heavy;-inkscape-font-specification:'Franklin Gothic Heavy,'"
             y="379.71417"
             x="2018.5408"
             height="118.98331"
             width="85.105278"
             id="rect3960" /></flowRegion><flowPara
           id="flowPara3962">B</flowPara></flowRoot>      <flowRoot
         transform="matrix(1.0413145,0,0,0.9827024,-1769.9951,279.93569)"
         style="font-size:92px;font-style:normal;font-variant:normal;font-weight:normal;font-stretch:normal;line-height:125%;letter-spacing:0px;word-spacing:0px;fill:#014a99;fill-opacity:1;stroke:none;font-family:Franklin Gothic Heavy;-inkscape-font-specification:'Franklin Gothic Heavy,'"
         id="flowRoot3956-7"
         xml:space="preserve"><flowRegion
           id="flowRegion3958-4"><rect
             style="font-size:92px;font-style:normal;font-variant:normal;font-weight:normal;font-stretch:normal;fill:#014a99;fill-opacity:1;font-family:Franklin Gothic Heavy;-inkscape-font-specification:'Franklin Gothic Heavy,'"
             y="379.71417"
             x="2018.5408"
             height="118.98331"
             width="85.105278"
             id="rect3960-0" /></flowRegion><flowPara
           id="flowPara3962-9">I</flowPara></flowRoot>      <flowRoot
         transform="matrix(0.94414899,0,0,0.9827024,-1543.292,307.86641)"
         style="font-size:92px;font-style:normal;font-variant:normal;font-weight:normal;font-stretch:normal;line-height:125%;letter-spacing:0px;word-spacing:0px;fill:#014a99;fill-opacity:1;stroke:none;font-family:Franklin Gothic Heavy;-inkscape-font-specification:'Franklin Gothic Heavy,'"
         id="flowRoot3956-4"
         xml:space="preserve"><flowRegion
           id="flowRegion3958-8"><rect
             style="font-size:92px;font-style:normal;font-variant:normal;font-weight:normal;font-stretch:normal;fill:#014a99;fill-opacity:1;font-family:Franklin Gothic Heavy;-inkscape-font-specification:'Franklin Gothic Heavy,'"
             y="379.71417"
             x="2018.5408"
             height="118.98331"
             width="85.105278"
             id="rect3960-8" /></flowRegion><flowPara
           id="flowPara3962-2">R</flowPara></flowRoot>      <flowRoot
         transform="matrix(1.0413145,0,0,0.97693653,-1677.0105,351.50239)"
         style="font-size:92px;font-style:normal;font-variant:normal;font-weight:normal;font-stretch:normal;line-height:125%;letter-spacing:0px;word-spacing:0px;fill:#014a99;fill-opacity:1;stroke:none;font-family:Franklin Gothic Heavy;-inkscape-font-specification:'Franklin Gothic Heavy,'"
         id="flowRoot3956-45"
         xml:space="preserve"><flowRegion
           id="flowRegion3958-5"><rect
             style="font-size:92px;font-style:normal;font-variant:normal;font-weight:normal;font-stretch:normal;fill:#014a99;fill-opacity:1;font-family:Franklin Gothic Heavy;-inkscape-font-specification:'Franklin Gothic Heavy,'"
             y="379.71417"
             x="2018.5408"
             height="118.98331"
             width="85.105278"
             id="rect3960-1" /></flowRegion><flowPara
           id="flowPara3962-7">K</flowPara></flowRoot>      <text
         sodipodi:linespacing="125%"
         id="text4025"
         y="795.89844"
         x="269.67752"
         style="font-size:27px;font-style:normal;font-variant:normal;font-weight:normal;font-stretch:normal;line-height:125%;letter-spacing:1.7700001px;word-spacing:0px;fill:#000000;fill-opacity:1;stroke:none;font-family:Franklin Gothic Demi;-inkscape-font-specification:Franklin Gothic Demi"
         xml:space="preserve"><tspan
           style="font-size:27px;letter-spacing:0.93000001px"
           y="795.89844"
           x="269.67752"
           id="tspan4027"
           sodipodi:role="line">INDUSTRIES</tspan></text>
    </g>
    <flowRoot
       xml:space="preserve"
       id="flowRoot4127"
       style="font-size:40px;font-style:normal;font-weight:normal;line-height:125%;letter-spacing:0px;word-spacing:0px;fill:#000000;fill-opacity:1;stroke:none;font-family:Sans"><flowRegion
         id="flowRegion4129"><rect
           id="rect4131"
           width="225.56706"
           height="60.104076"
           x="630.73926"
           y="525.56763" /></flowRegion><flowPara
         id="flowPara4133" /></flowRoot>  </g>
</svg>
